<svg width="800" height="520" viewBox="0 0 800 520" fill="none" xmlns="http://www.w3.org/2000/svg">
  <rect width="800" height="520" rx="32" fill="#0C1524"/>
  <rect x="24" y="24" width="752" height="472" rx="24" fill="url(#paint0_linear)"/>
  <circle cx="622" cy="144" r="84" fill="#F889BF" fill-opacity="0.22"/>
  <circle cx="184" cy="366" r="120" fill="#76D8FF" fill-opacity="0.16"/>
  <rect x="134" y="114" width="220" height="220" rx="32" fill="#10233A" stroke="#ffffff" stroke-opacity="0.08"/>
  <rect x="446" y="176" width="132" height="132" rx="28" fill="#F6BE61"/>
  <rect x="302" y="220" width="118" height="118" rx="24" fill="#76D8FF"/>
  <path d="M533 141L568 176H544V238H522V176H498L533 141Z" fill="#0C1524"/>
  <path d="M248 145C276.167 145 299 167.833 299 196V224H339L286 282L233 224H273V196C273 182.193 261.807 171 248 171H202V145H248Z" fill="#F889BF"/>
  <text x="72" y="430" fill="#ffffff" font-family="Space Grotesk, Arial" font-size="42" font-weight="700">Tap It Away</text>
  <text x="72" y="468" fill="#C9D5E4" font-family="Manrope, Arial" font-size="22">Physics-led puzzle interactions with satisfying motion</text>
  <defs>
    <linearGradient id="paint0_linear" x1="86" y1="50" x2="684" y2="458" gradientUnits="userSpaceOnUse">
      <stop stop-color="#122844"/>
      <stop offset="1" stop-color="#09121E"/>
    </linearGradient>
  </defs>
</svg>
